<svg width="95" height="34" viewBox="0 0 95 34" fill="none" xmlns="http://www.w3.org/2000/svg">
<path d="M75.7865 33.0852C75.184 32.4753 74.8948 31.7384 74.9189 30.8744C74.943 30.0105 75.2573 29.2735 75.8618 28.6637L84.3721 20.0493L3.01253 20.0493C2.15898 20.0493 1.44301 19.7566 0.864603 19.1711C0.2862 18.5856 -0.00199792 17.8619 1.04239e-05 17C1.04239e-05 16.136 0.289212 15.4113 0.867615 14.8258C1.44602 14.2404 2.16099 13.9486 3.01253 13.9507L84.3721 13.9507L75.7865 5.26009C75.184 4.65022 74.8827 3.9255 74.8827 3.08592C74.8827 2.24634 75.184 1.52263 75.7865 0.914797C76.389 0.304933 77.1049 0 77.9344 0C78.7638 0 79.4788 0.304933 80.0793 0.914797L93.8615 14.8655C94.1628 15.1704 94.3767 15.5007 94.5032 15.8565C94.6297 16.2123 94.692 16.5934 94.69 17C94.69 17.4066 94.6267 17.7877 94.5002 18.1435C94.3737 18.4992 94.1608 18.8296 93.8615 19.1345L80.004 33.1614C79.4517 33.7205 78.7618 34 77.9344 34C77.1069 34 76.391 33.6951 75.7865 33.0852Z" fill="#1F1F1F"/>
<path d="M0.169922 16.66C0.169922 15.1578 1.38771 13.94 2.88992 13.94H36.3799V20.06H2.88993C1.38771 20.06 0.169922 18.8422 0.169922 17.34V16.66Z" fill="#252423"/>
</svg>
