<svg width="410" height="335" viewBox="0 0 410 335" fill="none" xmlns="http://www.w3.org/2000/svg">
<g clip-path="url(#clip0)">
<path d="M25.4532 258.695C34.8125 258.695 42.422 251.091 42.422 241.738C42.422 232.386 34.8125 224.782 25.4532 224.782C16.0938 224.782 8.4844 232.386 8.4844 241.738C8.4844 251.091 16.0938 258.695 25.4532 258.695ZM144.235 258.695C153.594 258.695 161.204 251.091 161.204 241.738C161.204 232.386 153.594 224.782 144.235 224.782C134.875 224.782 127.266 232.386 127.266 241.738C127.266 251.091 134.875 258.695 144.235 258.695ZM152.719 267.173H135.75C131.084 267.173 126.868 269.055 123.793 272.101C134.478 277.957 142.061 288.528 143.704 301.087H161.204C165.896 301.087 169.688 297.298 169.688 292.608V284.13C169.688 274.777 162.078 267.173 152.719 267.173ZM84.844 267.173C101.256 267.173 114.539 253.9 114.539 237.499C114.539 221.099 101.256 207.825 84.844 207.825C68.432 207.825 55.1486 221.099 55.1486 237.499C55.1486 253.9 68.432 267.173 84.844 267.173ZM105.207 275.652H103.006C97.491 278.301 91.3663 279.891 84.844 279.891C78.3216 279.891 72.2234 278.301 66.6821 275.652H64.4814C47.6187 275.652 33.9376 289.323 33.9376 306.174V313.804C33.9376 320.825 39.638 326.522 46.6642 326.522H123.024C130.05 326.522 135.75 320.825 135.75 313.804V306.174C135.75 289.323 122.069 275.652 105.207 275.652ZM45.8953 272.101C42.8197 269.055 38.604 267.173 33.9376 267.173H16.9688C7.60944 267.173 0 274.777 0 284.13V292.608C0 297.298 3.79146 301.087 8.4844 301.087H25.957C27.6273 288.528 35.2102 277.957 45.8953 272.101Z" fill="white"/>
</g>
<circle cx="119.122" cy="200.806" r="6" stroke="white" stroke-width="11.3382"/>
<path d="M162.674 174.307C162.674 180.772 157.434 186.012 150.969 186.012C144.504 186.012 139.264 180.772 139.264 174.307C139.264 167.842 144.504 162.602 150.969 162.602C157.434 162.602 162.674 167.842 162.674 174.307Z" stroke="white" stroke-width="15"/>
<g clip-path="url(#clip1)">
<path d="M391.704 86.2437H321.671V17.2301C321.671 16.3819 320.966 15.6879 320.106 15.6879H315.019C304.743 15.6713 294.565 17.6572 285.071 21.5313C275.576 25.4055 266.953 31.0914 259.697 38.2619C252.551 45.282 246.857 53.6035 242.932 62.7636C238.847 72.2643 236.751 82.4799 236.77 92.7981C236.753 102.925 238.768 112.954 242.699 122.311C246.631 131.667 252.401 140.164 259.677 147.315C266.857 154.39 275.229 159.961 284.541 163.836C294.182 167.861 304.549 169.926 315.019 169.908C325.296 169.925 335.474 167.939 344.968 164.065C354.462 160.191 363.086 154.505 370.342 147.334C377.521 140.259 383.175 132.009 387.107 122.832C391.191 113.332 393.287 103.116 393.269 92.7981V87.7859C393.269 86.9377 392.565 86.2437 391.704 86.2437ZM360.737 138.255C354.679 144.177 347.495 148.864 339.597 152.046C331.698 155.229 323.24 156.844 314.706 156.799C297.472 156.722 281.274 150.072 269.087 138.062C256.821 125.975 250.072 109.897 250.072 92.7981C250.072 75.6989 256.821 59.6214 269.087 47.5344C279.768 37.0089 293.52 30.5894 308.368 29.1243V99.3524H379.634C378.128 114.061 371.555 127.69 360.737 138.255ZM408.919 75.5254L408.41 70.0891C406.748 52.3345 398.747 35.5823 385.875 22.9363C372.994 10.267 356.029 2.42621 337.907 0.767081L332.371 0.265865C331.452 0.188755 330.669 0.882746 330.669 1.78879V75.8338C330.669 76.682 331.374 77.376 332.234 77.376L407.354 77.1832C408.274 77.1832 408.997 76.4121 408.919 75.5254ZM343.933 64.3059V14.8397C356.256 17.3814 367.564 23.3954 376.485 32.1509C385.425 40.9415 391.548 52.1224 394.091 64.1709L343.933 64.3059Z" fill="white"/>
<path d="M408.919 75.5254L408.41 70.0891C406.748 52.3345 398.747 35.5823 385.875 22.9363C372.994 10.267 356.029 2.42621 337.907 0.767081L332.371 0.265865C331.452 0.188755 330.669 0.882746 330.669 1.78879V75.8338C330.669 76.682 331.374 77.376 332.234 77.376L407.354 77.1832C408.274 77.1832 408.997 76.4121 408.919 75.5254ZM343.933 64.3059V14.8397C356.256 17.3814 367.564 23.3954 376.485 32.1509C385.425 40.9415 391.548 52.1224 394.091 64.1709L343.933 64.3059Z" fill="#E7530B"/>
</g>
<path d="M221.409 140.515C221.409 151.089 212.838 159.66 202.264 159.66C191.691 159.66 183.119 151.089 183.119 140.515C183.119 129.942 191.691 121.37 202.264 121.37C212.838 121.37 221.409 129.942 221.409 140.515Z" stroke="white" stroke-width="22"/>
<defs>
<clipPath id="clip0">
<rect width="169.688" height="135.653" fill="white" transform="translate(0 199.347)"/>
</clipPath>
<clipPath id="clip1">
<rect width="173.091" height="170.174" fill="white" transform="translate(236.299)"/>
</clipPath>
</defs>
</svg>
