<svg width="80" height="46" viewBox="0 0 80 46" fill="none" xmlns="http://www.w3.org/2000/svg">
<path d="M77.5833 8.97918L42.5833 44.0833C42.1667 44.5 41.7153 44.7958 41.2292 44.9708C40.7431 45.1458 40.2222 45.232 39.6667 45.2292C39.1111 45.2292 38.5903 45.1417 38.1042 44.9667C37.6181 44.7917 37.1667 44.4972 36.75 44.0833L1.64583 8.97918C0.673611 8.00696 0.1875 6.79168 0.1875 5.33335C0.1875 3.87502 0.708333 2.62502 1.75 1.58335C2.79167 0.541685 4.00694 0.0208513 5.39583 0.0208513C6.78472 0.0208513 8 0.541685 9.04167 1.58335L39.6667 32.2084L70.2917 1.58335C71.2639 0.611129 72.4625 0.125016 73.8875 0.125016C75.3125 0.125016 76.5444 0.64585 77.5833 1.68752C78.625 2.72918 79.1458 3.94446 79.1458 5.33335C79.1458 6.72224 78.625 7.93752 77.5833 8.97918Z" fill="white"/>
</svg>
