<svg width="32" height="24" viewBox="0 0 32 24" fill="none" xmlns="http://www.w3.org/2000/svg">
<path d="M29.5 0.75H2.5C1.90326 0.75 1.33097 0.987053 0.90901 1.40901C0.487053 1.83097 0.25 2.40326 0.25 3V21C0.25 21.5967 0.487053 22.169 0.90901 22.591C1.33097 23.0129 1.90326 23.25 2.5 23.25H29.5C30.0967 23.25 30.669 23.0129 31.091 22.591C31.5129 22.169 31.75 21.5967 31.75 21V3C31.75 2.40326 31.5129 1.83097 31.091 1.40901C30.669 0.987053 30.0967 0.75 29.5 0.75V0.75ZM27.025 3L16 10.6275L4.975 3H27.025ZM2.5 21V4.02375L15.3588 12.9225C15.5471 13.0531 15.7708 13.1232 16 13.1232C16.2292 13.1232 16.4529 13.0531 16.6412 12.9225L29.5 4.02375V21H2.5Z" fill="white"/>
</svg>
