<svg width="319" height="26" viewBox="0 0 319 26" fill="none" xmlns="http://www.w3.org/2000/svg">
<path d="M2.03442 25.6846C1.4314 25.6846 0.942627 25.6052 0.568115 25.4465V24.1611C1.0061 24.2881 1.43774 24.3516 1.86304 24.3516C2.35815 24.3516 2.71997 24.2151 2.94849 23.9421C3.18335 23.6755 3.30078 23.2661 3.30078 22.7139V10.5645H4.88135V22.5996C4.88135 24.6562 3.93237 25.6846 2.03442 25.6846ZM3.16748 7.73657C3.16748 7.37476 3.25635 7.11133 3.43408 6.94629C3.61182 6.7749 3.83398 6.68921 4.10059 6.68921C4.35449 6.68921 4.57349 6.7749 4.75757 6.94629C4.94165 7.11768 5.03369 7.3811 5.03369 7.73657C5.03369 8.09204 4.94165 8.35864 4.75757 8.53638C4.57349 8.70776 4.35449 8.79346 4.10059 8.79346C3.83398 8.79346 3.61182 8.70776 3.43408 8.53638C3.25635 8.35864 3.16748 8.09204 3.16748 7.73657ZM17.2402 15.7727C17.2402 17.4739 16.8118 18.8037 15.9548 19.7622C15.0979 20.7144 13.9141 21.1904 12.4033 21.1904C11.4702 21.1904 10.6418 20.9714 9.91821 20.5334C9.19458 20.0955 8.63599 19.467 8.24243 18.6482C7.84888 17.8293 7.6521 16.8708 7.6521 15.7727C7.6521 14.0715 8.07739 12.748 8.92798 11.8022C9.77856 10.8501 10.9592 10.374 12.47 10.374C13.9299 10.374 15.0884 10.8596 15.9453 11.8308C16.8086 12.802 17.2402 14.116 17.2402 15.7727ZM9.28979 15.7727C9.28979 17.1057 9.5564 18.1213 10.0896 18.8196C10.6228 19.5178 11.4067 19.8669 12.4414 19.8669C13.4761 19.8669 14.26 19.521 14.7932 18.8291C15.3328 18.1309 15.6025 17.1121 15.6025 15.7727C15.6025 14.446 15.3328 13.4399 14.7932 12.7544C14.26 12.0625 13.4697 11.7166 12.4224 11.7166C11.3877 11.7166 10.6069 12.0562 10.0801 12.7354C9.55322 13.4146 9.28979 14.427 9.28979 15.7727ZM24.7812 10.374C25.2446 10.374 25.6604 10.4121 26.0286 10.4883L25.8096 11.9546C25.3779 11.8594 24.9971 11.8118 24.667 11.8118C23.8228 11.8118 23.0991 12.1545 22.4961 12.8401C21.8994 13.5256 21.6011 14.3794 21.6011 15.4014V21H20.0205V10.5645H21.325L21.5059 12.4973H21.582C21.9692 11.8181 22.4358 11.2944 22.9817 10.9263C23.5276 10.5581 24.1274 10.374 24.7812 10.374ZM35.0835 19.6003H34.9978C34.2678 20.6604 33.176 21.1904 31.7224 21.1904C30.3577 21.1904 29.2944 20.7239 28.5327 19.7908C27.7773 18.8577 27.3997 17.531 27.3997 15.8108C27.3997 14.0906 27.7805 12.7544 28.5422 11.8022C29.304 10.8501 30.364 10.374 31.7224 10.374C33.1379 10.374 34.2234 10.8882 34.9788 11.9165H35.1025L35.0359 11.1643L34.9978 10.4312V6.18457H36.5784V21H35.293L35.0835 19.6003ZM31.9224 19.8669C33.0015 19.8669 33.7822 19.575 34.2646 18.991C34.7534 18.4006 34.9978 17.4517 34.9978 16.144V15.8108C34.9978 14.3318 34.7502 13.2781 34.2551 12.6497C33.7664 12.0149 32.9824 11.6975 31.9033 11.6975C30.9766 11.6975 30.2656 12.0593 29.7705 12.783C29.2817 13.5002 29.0374 14.5159 29.0374 15.8298C29.0374 17.1628 29.2817 18.1689 29.7705 18.8481C30.2593 19.5273 30.9766 19.8669 31.9224 19.8669ZM46.3569 21L46.0427 19.5146H45.9666C45.446 20.1685 44.9255 20.6128 44.405 20.8477C43.8909 21.0762 43.2466 21.1904 42.4722 21.1904C41.4375 21.1904 40.625 20.9238 40.0347 20.3906C39.4507 19.8574 39.1587 19.0989 39.1587 18.115C39.1587 16.0076 40.844 14.9031 44.2146 14.8015L45.9856 14.7444V14.0969C45.9856 13.2781 45.8079 12.675 45.4524 12.2878C45.1033 11.8943 44.5415 11.6975 43.7671 11.6975C42.8975 11.6975 41.9136 11.9641 40.8154 12.4973L40.3298 11.2881C40.844 11.0088 41.4058 10.7898 42.0151 10.6311C42.6309 10.4724 43.2466 10.3931 43.8623 10.3931C45.1064 10.3931 46.0269 10.6692 46.6235 11.2214C47.2266 11.7737 47.5281 12.6592 47.5281 13.8779V21H46.3569ZM42.7864 19.886C43.7703 19.886 44.5415 19.6162 45.1001 19.0767C45.665 18.5371 45.9475 17.7817 45.9475 16.8105V15.8679L44.3669 15.9346C43.1101 15.979 42.2024 16.1758 41.6438 16.5249C41.0916 16.8677 40.8154 17.4041 40.8154 18.134C40.8154 18.7053 40.9868 19.1401 41.3296 19.4385C41.6787 19.7368 42.1643 19.886 42.7864 19.886ZM57.9351 21V14.2493C57.9351 13.3987 57.7415 12.7639 57.3542 12.345C56.967 11.926 56.3608 11.7166 55.5356 11.7166C54.4438 11.7166 53.644 12.0117 53.1362 12.6021C52.6284 13.1924 52.3745 14.1667 52.3745 15.5251V21H50.7939V10.5645H52.0793L52.3364 11.9927H52.4126C52.7363 11.4785 53.1902 11.0818 53.7742 10.8025C54.3582 10.5168 55.0088 10.374 55.7261 10.374C56.9829 10.374 57.9287 10.6787 58.5635 11.2881C59.1982 11.8911 59.5156 12.8591 59.5156 14.1921V21H57.9351ZM62.5435 19.9907C62.5435 19.5654 62.6387 19.2449 62.8291 19.0291C63.0259 18.8069 63.3052 18.6958 63.667 18.6958C64.0352 18.6958 64.3208 18.8069 64.5239 19.0291C64.7334 19.2449 64.8381 19.5654 64.8381 19.9907C64.8381 20.4033 64.7334 20.7207 64.5239 20.9429C64.3145 21.165 64.0288 21.2761 63.667 21.2761C63.3433 21.2761 63.0735 21.1777 62.8577 20.981C62.6482 20.7778 62.5435 20.4478 62.5435 19.9907ZM72.3792 21.1904C70.8367 21.1904 69.6179 20.7207 68.7229 19.7812C67.8342 18.8418 67.3899 17.5374 67.3899 15.8679C67.3899 14.1858 67.8025 12.8496 68.6277 11.8594C69.4592 10.8691 70.5732 10.374 71.9697 10.374C73.2773 10.374 74.312 10.8057 75.0737 11.6689C75.8354 12.5259 76.2163 13.6589 76.2163 15.0681V16.0679H69.0276C69.0593 17.293 69.3672 18.2229 69.9512 18.8577C70.5415 19.4924 71.3699 19.8098 72.4363 19.8098C73.5598 19.8098 74.6707 19.575 75.7688 19.1052V20.5144C75.2102 20.7556 74.6802 20.927 74.1787 21.0286C73.6836 21.1365 73.0837 21.1904 72.3792 21.1904ZM71.9507 11.6975C71.1128 11.6975 70.4431 11.9705 69.9417 12.5164C69.4465 13.0623 69.1545 13.8176 69.0657 14.7825H74.5215C74.5215 13.7859 74.2993 13.0242 73.855 12.4973C73.4106 11.9641 72.7759 11.6975 71.9507 11.6975ZM86.0615 21V14.2493C86.0615 13.3987 85.8679 12.7639 85.4807 12.345C85.0935 11.926 84.4873 11.7166 83.6621 11.7166C82.5703 11.7166 81.7705 12.0117 81.2627 12.6021C80.7549 13.1924 80.501 14.1667 80.501 15.5251V21H78.9204V10.5645H80.2058L80.4629 11.9927H80.5391C80.8628 11.4785 81.3167 11.0818 81.9006 10.8025C82.4846 10.5168 83.1353 10.374 83.8525 10.374C85.1094 10.374 86.0552 10.6787 86.6899 11.2881C87.3247 11.8911 87.6421 12.8591 87.6421 14.1921V21H86.0615ZM99.4392 10.5645V11.5642L97.5063 11.7927C97.6841 12.0149 97.8428 12.3069 97.9824 12.6687C98.1221 13.0242 98.1919 13.4272 98.1919 13.8779C98.1919 14.8999 97.8428 15.7156 97.1445 16.325C96.4463 16.9343 95.4878 17.239 94.269 17.239C93.958 17.239 93.666 17.2136 93.3931 17.1628C92.7202 17.5183 92.3838 17.9658 92.3838 18.5054C92.3838 18.791 92.5012 19.0037 92.7361 19.1433C92.9709 19.2766 93.374 19.3433 93.9453 19.3433H95.7925C96.9224 19.3433 97.7888 19.5813 98.3918 20.0574C99.0012 20.5334 99.3059 21.2253 99.3059 22.1331C99.3059 23.2883 98.8425 24.1675 97.9158 24.7705C96.989 25.3799 95.637 25.6846 93.8596 25.6846C92.4949 25.6846 91.4412 25.4307 90.6985 24.9229C89.9622 24.415 89.594 23.6978 89.594 22.771C89.594 22.1362 89.7971 21.5872 90.2034 21.1238C90.6096 20.6604 91.1809 20.3462 91.9172 20.1812C91.6506 20.0605 91.4253 19.8733 91.2412 19.6194C91.0635 19.3655 90.9746 19.0703 90.9746 18.7339C90.9746 18.353 91.0762 18.0198 91.2793 17.7341C91.4824 17.4485 91.803 17.1724 92.241 16.9058C91.7014 16.6836 91.2603 16.3059 90.9175 15.7727C90.5811 15.2395 90.4128 14.6301 90.4128 13.9446C90.4128 12.802 90.7556 11.9229 91.4412 11.3071C92.1267 10.6851 93.0979 10.374 94.3547 10.374C94.9006 10.374 95.3926 10.4375 95.8306 10.5645H99.4392ZM91.1174 22.752C91.1174 23.3169 91.3555 23.7454 91.8315 24.0374C92.3076 24.3293 92.99 24.4753 93.8787 24.4753C95.2053 24.4753 96.186 24.2754 96.8208 23.8755C97.4619 23.4819 97.7825 22.9456 97.7825 22.2664C97.7825 21.7014 97.6079 21.3079 97.2588 21.0857C96.9097 20.8699 96.2527 20.762 95.2878 20.762H93.3931C92.6758 20.762 92.1172 20.9333 91.7173 21.2761C91.3174 21.6189 91.1174 22.1108 91.1174 22.752ZM91.9744 13.9065C91.9744 14.6365 92.1807 15.1887 92.5933 15.5632C93.0059 15.9377 93.5803 16.125 94.3167 16.125C95.8591 16.125 96.6304 15.376 96.6304 13.8779C96.6304 12.3101 95.8496 11.5261 94.2881 11.5261C93.5454 11.5261 92.9741 11.7261 92.5742 12.126C92.1743 12.5259 91.9744 13.1194 91.9744 13.9065ZM103.162 21H101.582V6.18457H103.162V21ZM112.931 21L112.617 19.5146H112.541C112.02 20.1685 111.5 20.6128 110.979 20.8477C110.465 21.0762 109.821 21.1904 109.046 21.1904C108.012 21.1904 107.199 20.9238 106.609 20.3906C106.025 19.8574 105.733 19.0989 105.733 18.115C105.733 16.0076 107.418 14.9031 110.789 14.8015L112.56 14.7444V14.0969C112.56 13.2781 112.382 12.675 112.027 12.2878C111.677 11.8943 111.116 11.6975 110.341 11.6975C109.472 11.6975 108.488 11.9641 107.39 12.4973L106.904 11.2881C107.418 11.0088 107.98 10.7898 108.589 10.6311C109.205 10.4724 109.821 10.3931 110.437 10.3931C111.681 10.3931 112.601 10.6692 113.198 11.2214C113.801 11.7737 114.102 12.6592 114.102 13.8779V21H112.931ZM109.361 19.886C110.344 19.886 111.116 19.6162 111.674 19.0767C112.239 18.5371 112.522 17.7817 112.522 16.8105V15.8679L110.941 15.9346C109.684 15.979 108.777 16.1758 108.218 16.5249C107.666 16.8677 107.39 17.4041 107.39 18.134C107.39 18.7053 107.561 19.1401 107.904 19.4385C108.253 19.7368 108.739 19.886 109.361 19.886ZM124.509 21V14.2493C124.509 13.3987 124.316 12.7639 123.928 12.345C123.541 11.926 122.935 11.7166 122.11 11.7166C121.018 11.7166 120.218 12.0117 119.71 12.6021C119.203 13.1924 118.949 14.1667 118.949 15.5251V21H117.368V10.5645H118.654L118.911 11.9927H118.987C119.311 11.4785 119.764 11.0818 120.348 10.8025C120.932 10.5168 121.583 10.374 122.3 10.374C123.557 10.374 124.503 10.6787 125.138 11.2881C125.772 11.8911 126.09 12.8591 126.09 14.1921V21H124.509ZM136.449 19.6003H136.364C135.634 20.6604 134.542 21.1904 133.088 21.1904C131.723 21.1904 130.66 20.7239 129.898 19.7908C129.143 18.8577 128.765 17.531 128.765 15.8108C128.765 14.0906 129.146 12.7544 129.908 11.8022C130.67 10.8501 131.73 10.374 133.088 10.374C134.504 10.374 135.589 10.8882 136.344 11.9165H136.468L136.402 11.1643L136.364 10.4312V6.18457H137.944V21H136.659L136.449 19.6003ZM133.288 19.8669C134.367 19.8669 135.148 19.575 135.63 18.991C136.119 18.4006 136.364 17.4517 136.364 16.144V15.8108C136.364 14.3318 136.116 13.2781 135.621 12.6497C135.132 12.0149 134.348 11.6975 133.269 11.6975C132.342 11.6975 131.631 12.0593 131.136 12.783C130.647 13.5002 130.403 14.5159 130.403 15.8298C130.403 17.1628 130.647 18.1689 131.136 18.8481C131.625 19.5273 132.342 19.8669 133.288 19.8669ZM141.077 19.9907C141.077 19.5654 141.172 19.2449 141.362 19.0291C141.559 18.8069 141.838 18.6958 142.2 18.6958C142.568 18.6958 142.854 18.8069 143.057 19.0291C143.267 19.2449 143.371 19.5654 143.371 19.9907C143.371 20.4033 143.267 20.7207 143.057 20.9429C142.848 21.165 142.562 21.2761 142.2 21.2761C141.876 21.2761 141.607 21.1777 141.391 20.981C141.181 20.7778 141.077 20.4478 141.077 19.9907ZM153.645 21V14.2493C153.645 13.3987 153.451 12.7639 153.064 12.345C152.677 11.926 152.071 11.7166 151.246 11.7166C150.154 11.7166 149.354 12.0117 148.846 12.6021C148.338 13.1924 148.084 14.1667 148.084 15.5251V21H146.504V10.5645H147.789L148.046 11.9927H148.123C148.446 11.4785 148.9 11.0818 149.484 10.8025C150.068 10.5168 150.719 10.374 151.436 10.374C152.693 10.374 153.639 10.6787 154.273 11.2881C154.908 11.8911 155.226 12.8591 155.226 14.1921V21H153.645ZM162.89 21.1904C161.348 21.1904 160.129 20.7207 159.234 19.7812C158.345 18.8418 157.901 17.5374 157.901 15.8679C157.901 14.1858 158.314 12.8496 159.139 11.8594C159.97 10.8691 161.084 10.374 162.481 10.374C163.789 10.374 164.823 10.8057 165.585 11.6689C166.347 12.5259 166.728 13.6589 166.728 15.0681V16.0679H159.539C159.571 17.293 159.878 18.2229 160.462 18.8577C161.053 19.4924 161.881 19.8098 162.948 19.8098C164.071 19.8098 165.182 19.575 166.28 19.1052V20.5144C165.721 20.7556 165.191 20.927 164.69 21.0286C164.195 21.1365 163.595 21.1904 162.89 21.1904ZM162.462 11.6975C161.624 11.6975 160.954 11.9705 160.453 12.5164C159.958 13.0623 159.666 13.8176 159.577 14.7825H165.033C165.033 13.7859 164.811 13.0242 164.366 12.4973C163.922 11.9641 163.287 11.6975 162.462 11.6975ZM171.012 21H169.432V6.18457H171.012V21ZM181.095 18.1531C181.095 19.1243 180.734 19.8733 180.01 20.4001C179.286 20.927 178.271 21.1904 176.963 21.1904C175.579 21.1904 174.5 20.9714 173.726 20.5334V19.0671C174.227 19.321 174.764 19.521 175.335 19.667C175.913 19.813 176.468 19.886 177.001 19.886C177.826 19.886 178.461 19.7559 178.906 19.4956C179.35 19.229 179.572 18.8259 179.572 18.2864C179.572 17.8801 179.394 17.5342 179.039 17.2485C178.69 16.9565 178.004 16.6138 176.982 16.2202C176.011 15.8584 175.319 15.5442 174.906 15.2776C174.5 15.0046 174.196 14.6968 173.992 14.354C173.796 14.0112 173.697 13.6018 173.697 13.1257C173.697 12.2751 174.043 11.6055 174.735 11.1167C175.427 10.6216 176.376 10.374 177.582 10.374C178.706 10.374 179.804 10.6025 180.876 11.0596L180.315 12.345C179.267 11.9133 178.318 11.6975 177.468 11.6975C176.719 11.6975 176.154 11.8149 175.773 12.0498C175.392 12.2847 175.202 12.6084 175.202 13.021C175.202 13.3003 175.271 13.5383 175.411 13.7351C175.557 13.9319 175.789 14.1191 176.106 14.2969C176.424 14.4746 177.033 14.7317 177.934 15.0681C179.172 15.5188 180.007 15.9727 180.438 16.4297C180.876 16.8867 181.095 17.4612 181.095 18.1531ZM192.683 15.7727C192.683 17.4739 192.255 18.8037 191.398 19.7622C190.541 20.7144 189.357 21.1904 187.846 21.1904C186.913 21.1904 186.085 20.9714 185.361 20.5334C184.637 20.0955 184.079 19.467 183.685 18.6482C183.292 17.8293 183.095 16.8708 183.095 15.7727C183.095 14.0715 183.52 12.748 184.371 11.8022C185.221 10.8501 186.402 10.374 187.913 10.374C189.373 10.374 190.531 10.8596 191.388 11.8308C192.251 12.802 192.683 14.116 192.683 15.7727ZM184.733 15.7727C184.733 17.1057 184.999 18.1213 185.532 18.8196C186.066 19.5178 186.85 19.8669 187.884 19.8669C188.919 19.8669 189.703 19.521 190.236 18.8291C190.776 18.1309 191.045 17.1121 191.045 15.7727C191.045 14.446 190.776 13.4399 190.236 12.7544C189.703 12.0625 188.913 11.7166 187.865 11.7166C186.831 11.7166 186.05 12.0562 185.523 12.7354C184.996 13.4146 184.733 14.427 184.733 15.7727ZM202.604 21V14.2493C202.604 13.3987 202.411 12.7639 202.024 12.345C201.636 11.926 201.03 11.7166 200.205 11.7166C199.113 11.7166 198.313 12.0117 197.806 12.6021C197.298 13.1924 197.044 14.1667 197.044 15.5251V21H195.463V10.5645H196.749L197.006 11.9927H197.082C197.406 11.4785 197.86 11.0818 198.444 10.8025C199.028 10.5168 199.678 10.374 200.396 10.374C201.652 10.374 202.598 10.6787 203.233 11.2881C203.868 11.8911 204.185 12.8591 204.185 14.1921V21H202.604ZM222.143 14.0588C222.143 14.9602 222.003 15.7854 221.724 16.5344C221.444 17.2834 221.051 17.8643 220.543 18.2769C220.035 18.6895 219.451 18.8958 218.791 18.8958C218.245 18.8958 217.785 18.7307 217.41 18.4006C217.036 18.0706 216.814 17.6484 216.744 17.1343H216.668C216.414 17.6865 216.049 18.1182 215.573 18.4292C215.103 18.7402 214.544 18.8958 213.897 18.8958C212.945 18.8958 212.199 18.572 211.659 17.9246C211.126 17.2708 210.86 16.3853 210.86 15.2681C210.86 13.9731 211.234 12.9226 211.983 12.1165C212.732 11.304 213.716 10.8977 214.935 10.8977C215.366 10.8977 215.855 10.939 216.401 11.0215C216.947 11.0977 217.439 11.2056 217.877 11.3452L217.639 15.8203V16.0298C217.639 17.1597 218.061 17.7246 218.905 17.7246C219.483 17.7246 219.953 17.385 220.314 16.7058C220.676 16.0203 220.857 15.1316 220.857 14.0398C220.857 12.8909 220.622 11.8848 220.153 11.0215C219.683 10.1582 219.013 9.49487 218.144 9.03149C217.28 8.56177 216.287 8.3269 215.163 8.3269C213.748 8.3269 212.516 8.62207 211.469 9.2124C210.422 9.79639 209.622 10.6343 209.07 11.7261C208.517 12.8115 208.241 14.0684 208.241 15.4966C208.241 17.4326 208.752 18.9211 209.774 19.9622C210.796 21.0032 212.269 21.5237 214.192 21.5237C215.525 21.5237 216.909 21.2507 218.344 20.7048V21.9712C217.125 22.5044 215.741 22.771 214.192 22.771C211.888 22.771 210.098 22.1394 208.822 20.8762C207.552 19.6067 206.918 17.8357 206.918 15.5632C206.918 13.9128 207.257 12.4434 207.937 11.1548C208.616 9.86621 209.584 8.86963 210.841 8.16504C212.097 7.4541 213.538 7.09863 215.163 7.09863C216.528 7.09863 217.74 7.38745 218.801 7.96509C219.867 8.53638 220.689 9.35205 221.267 10.4121C221.851 11.4658 222.143 12.6814 222.143 14.0588ZM212.297 15.3062C212.297 16.9185 212.916 17.7246 214.154 17.7246C215.468 17.7246 216.182 16.7312 216.296 14.7444L216.43 12.2593C215.973 12.1323 215.474 12.0688 214.935 12.0688C214.11 12.0688 213.462 12.3545 212.992 12.9258C212.529 13.4971 212.297 14.2905 212.297 15.3062ZM233.521 10.5645V11.5642L231.588 11.7927C231.766 12.0149 231.924 12.3069 232.064 12.6687C232.204 13.0242 232.273 13.4272 232.273 13.8779C232.273 14.8999 231.924 15.7156 231.226 16.325C230.528 16.9343 229.569 17.239 228.351 17.239C228.04 17.239 227.748 17.2136 227.475 17.1628C226.802 17.5183 226.465 17.9658 226.465 18.5054C226.465 18.791 226.583 19.0037 226.818 19.1433C227.052 19.2766 227.456 19.3433 228.027 19.3433H229.874C231.004 19.3433 231.87 19.5813 232.473 20.0574C233.083 20.5334 233.387 21.2253 233.387 22.1331C233.387 23.2883 232.924 24.1675 231.997 24.7705C231.071 25.3799 229.719 25.6846 227.941 25.6846C226.576 25.6846 225.523 25.4307 224.78 24.9229C224.044 24.415 223.676 23.6978 223.676 22.771C223.676 22.1362 223.879 21.5872 224.285 21.1238C224.691 20.6604 225.262 20.3462 225.999 20.1812C225.732 20.0605 225.507 19.8733 225.323 19.6194C225.145 19.3655 225.056 19.0703 225.056 18.7339C225.056 18.353 225.158 18.0198 225.361 17.7341C225.564 17.4485 225.885 17.1724 226.323 16.9058C225.783 16.6836 225.342 16.3059 224.999 15.7727C224.663 15.2395 224.494 14.6301 224.494 13.9446C224.494 12.802 224.837 11.9229 225.523 11.3071C226.208 10.6851 227.179 10.374 228.436 10.374C228.982 10.374 229.474 10.4375 229.912 10.5645H233.521ZM225.199 22.752C225.199 23.3169 225.437 23.7454 225.913 24.0374C226.389 24.3293 227.072 24.4753 227.96 24.4753C229.287 24.4753 230.268 24.2754 230.902 23.8755C231.543 23.4819 231.864 22.9456 231.864 22.2664C231.864 21.7014 231.689 21.3079 231.34 21.0857C230.991 20.8699 230.334 20.762 229.369 20.762H227.475C226.757 20.762 226.199 20.9333 225.799 21.2761C225.399 21.6189 225.199 22.1108 225.199 22.752ZM226.056 13.9065C226.056 14.6365 226.262 15.1887 226.675 15.5632C227.087 15.9377 227.662 16.125 228.398 16.125C229.941 16.125 230.712 15.376 230.712 13.8779C230.712 12.3101 229.931 11.5261 228.37 11.5261C227.627 11.5261 227.056 11.7261 226.656 12.126C226.256 12.5259 226.056 13.1194 226.056 13.9065ZM248.965 21V14.2112C248.965 13.3796 248.787 12.7576 248.431 12.345C248.076 11.926 247.524 11.7166 246.775 11.7166C245.791 11.7166 245.064 11.999 244.594 12.564C244.125 13.1289 243.89 13.9985 243.89 15.1729V21H242.309V14.2112C242.309 13.3796 242.131 12.7576 241.776 12.345C241.42 11.926 240.865 11.7166 240.11 11.7166C239.119 11.7166 238.393 12.0149 237.929 12.6116C237.472 13.2019 237.244 14.1731 237.244 15.5251V21H235.663V10.5645H236.948L237.206 11.9927H237.282C237.58 11.4849 237.999 11.0881 238.539 10.8025C239.084 10.5168 239.694 10.374 240.367 10.374C241.998 10.374 243.064 10.9644 243.566 12.145H243.642C243.953 11.5991 244.404 11.1675 244.994 10.8501C245.584 10.5327 246.257 10.374 247.013 10.374C248.193 10.374 249.076 10.6787 249.66 11.2881C250.25 11.8911 250.545 12.8591 250.545 14.1921V21H248.965ZM260.229 21L259.914 19.5146H259.838C259.318 20.1685 258.797 20.6128 258.277 20.8477C257.762 21.0762 257.118 21.1904 256.344 21.1904C255.309 21.1904 254.497 20.9238 253.906 20.3906C253.322 19.8574 253.03 19.0989 253.03 18.115C253.03 16.0076 254.716 14.9031 258.086 14.8015L259.857 14.7444V14.0969C259.857 13.2781 259.679 12.675 259.324 12.2878C258.975 11.8943 258.413 11.6975 257.639 11.6975C256.769 11.6975 255.785 11.9641 254.687 12.4973L254.201 11.2881C254.716 11.0088 255.277 10.7898 255.887 10.6311C256.502 10.4724 257.118 10.3931 257.734 10.3931C258.978 10.3931 259.898 10.6692 260.495 11.2214C261.098 11.7737 261.4 12.6592 261.4 13.8779V21H260.229ZM256.658 19.886C257.642 19.886 258.413 19.6162 258.972 19.0767C259.537 18.5371 259.819 17.7817 259.819 16.8105V15.8679L258.239 15.9346C256.982 15.979 256.074 16.1758 255.515 16.5249C254.963 16.8677 254.687 17.4041 254.687 18.134C254.687 18.7053 254.858 19.1401 255.201 19.4385C255.55 19.7368 256.036 19.886 256.658 19.886ZM266.246 21H264.666V10.5645H266.246V21ZM264.532 7.73657C264.532 7.37476 264.621 7.11133 264.799 6.94629C264.977 6.7749 265.199 6.68921 265.465 6.68921C265.719 6.68921 265.938 6.7749 266.122 6.94629C266.306 7.11768 266.398 7.3811 266.398 7.73657C266.398 8.09204 266.306 8.35864 266.122 8.53638C265.938 8.70776 265.719 8.79346 265.465 8.79346C265.199 8.79346 264.977 8.70776 264.799 8.53638C264.621 8.35864 264.532 8.09204 264.532 7.73657ZM271.178 21H269.598V6.18457H271.178V21ZM274.301 19.9907C274.301 19.5654 274.396 19.2449 274.587 19.0291C274.784 18.8069 275.063 18.6958 275.425 18.6958C275.793 18.6958 276.079 18.8069 276.282 19.0291C276.491 19.2449 276.596 19.5654 276.596 19.9907C276.596 20.4033 276.491 20.7207 276.282 20.9429C276.072 21.165 275.787 21.2761 275.425 21.2761C275.101 21.2761 274.831 21.1777 274.615 20.981C274.406 20.7778 274.301 20.4478 274.301 19.9907ZM283.899 21.1904C282.388 21.1904 281.217 20.7271 280.385 19.8003C279.56 18.8672 279.148 17.55 279.148 15.8489C279.148 14.1033 279.567 12.7544 280.405 11.8022C281.249 10.8501 282.448 10.374 284.004 10.374C284.505 10.374 285.007 10.428 285.508 10.5359C286.01 10.6438 286.403 10.7708 286.689 10.9167L286.203 12.2593C285.854 12.1196 285.473 12.0054 285.061 11.9165C284.648 11.8213 284.283 11.7737 283.966 11.7737C281.845 11.7737 280.785 13.1257 280.785 15.8298C280.785 17.1121 281.042 18.0959 281.557 18.7815C282.077 19.467 282.845 19.8098 283.861 19.8098C284.73 19.8098 285.622 19.6226 286.536 19.248V20.6477C285.838 21.0095 284.959 21.1904 283.899 21.1904ZM298.029 15.7727C298.029 17.4739 297.6 18.8037 296.743 19.7622C295.886 20.7144 294.703 21.1904 293.192 21.1904C292.259 21.1904 291.43 20.9714 290.707 20.5334C289.983 20.0955 289.425 19.467 289.031 18.6482C288.637 17.8293 288.441 16.8708 288.441 15.7727C288.441 14.0715 288.866 12.748 289.717 11.8022C290.567 10.8501 291.748 10.374 293.259 10.374C294.719 10.374 295.877 10.8596 296.734 11.8308C297.597 12.802 298.029 14.116 298.029 15.7727ZM290.078 15.7727C290.078 17.1057 290.345 18.1213 290.878 18.8196C291.411 19.5178 292.195 19.8669 293.23 19.8669C294.265 19.8669 295.049 19.521 295.582 18.8291C296.121 18.1309 296.391 17.1121 296.391 15.7727C296.391 14.446 296.121 13.4399 295.582 12.7544C295.049 12.0625 294.258 11.7166 293.211 11.7166C292.176 11.7166 291.396 12.0562 290.869 12.7354C290.342 13.4146 290.078 14.427 290.078 15.7727ZM314.111 21V14.2112C314.111 13.3796 313.933 12.7576 313.577 12.345C313.222 11.926 312.67 11.7166 311.921 11.7166C310.937 11.7166 310.21 11.999 309.74 12.564C309.271 13.1289 309.036 13.9985 309.036 15.1729V21H307.455V14.2112C307.455 13.3796 307.277 12.7576 306.922 12.345C306.566 11.926 306.011 11.7166 305.256 11.7166C304.265 11.7166 303.539 12.0149 303.075 12.6116C302.618 13.2019 302.39 14.1731 302.39 15.5251V21H300.809V10.5645H302.094L302.352 11.9927H302.428C302.726 11.4849 303.145 11.0881 303.685 10.8025C304.23 10.5168 304.84 10.374 305.513 10.374C307.144 10.374 308.21 10.9644 308.712 12.145H308.788C309.099 11.5991 309.55 11.1675 310.14 10.8501C310.73 10.5327 311.403 10.374 312.159 10.374C313.339 10.374 314.222 10.6787 314.806 11.2881C315.396 11.8911 315.691 12.8591 315.691 14.1921V21H314.111Z" fill="white"/>
</svg>
